<svg width="644" height="356" viewBox="0 0 644 356" fill="none" xmlns="http://www.w3.org/2000/svg">
<path fill-rule="evenodd" clip-rule="evenodd" d="M319.72 2.71853C300.321 0.979104 288.53 7.87229 285.852 20.9548C283.232 33.3978 290.994 42.689 311.672 44.5431C331.07 46.2826 342.862 39.3894 345.539 26.3069C348.159 13.8639 340.397 4.57264 319.72 2.71853ZM320.494 97.1204C325.049 82.2723 330.669 67.5198 337.375 52.6497C330.048 50.4885 318.594 48.8169 307.723 47.842C294.72 46.676 285.709 46.5127 274.704 47.03C270.417 58.8938 266.808 70.3885 263.8 82.367C266.319 83.0227 268.839 83.6784 271.184 83.8887C267.384 97.5151 263.504 109.63 258.446 125.293C251.285 147.643 255.12 162.384 281.34 164.735C306.92 167.028 317.023 157.405 328.369 119.529L320.056 118.784C315.018 134.233 313.026 137.278 310.894 137.087C309.189 136.934 308.953 134.764 310.497 129.53L320.494 97.1204ZM227.919 9.52841C224.116 20.7909 220.43 33.1383 217.654 44.9227L225.697 46.2886C222.651 58.6933 219.198 70.8467 215.512 83.1941C215.225 84.2319 214.896 85.2657 214.56 86.3186C214.15 87.606 213.73 88.9219 213.37 90.308C210.914 62.5831 209.291 35.1478 207.882 7.73164L129.863 0.735707C125.518 13.239 122.374 24.3456 119.598 36.13L120.184 36.2323L120.184 36.2323L120.184 36.2323L120.184 36.2324C122.497 36.6368 124.644 37.0122 126.807 37.2062C124.226 49.2229 121.431 61.2205 117.996 73.1607C114.524 85.5272 110.625 97.8555 106.3 110.146C103.925 109.933 101.718 109.92 99.3528 109.906L99.3525 109.906L98.8006 109.903C96.4215 117.142 94.184 124.641 92.2255 132.003L36.7813 127.032C34.3167 143.137 33.3217 157.079 32.9463 169.8L32.9472 169.8C37.7098 170.737 42.4724 171.675 47.2804 172.106C35.8134 200.414 23.5645 228.908 10.8776 256.597C8.57727 256.645 6.27697 256.694 3.95398 256.996C1.924 271.1 0.630529 285.525 0.118952 299.764L75.5329 306.527C77.5629 292.423 78.8564 277.998 79.368 263.759C75.1112 262.867 70.5787 262.205 66.0462 261.544L71.0187 245.918L103.158 248.8L104.788 264.762C100.21 264.607 95.6096 264.705 91.009 264.802C88.9791 278.906 87.6856 293.331 87.174 307.571L184.858 316.33C186.888 302.226 188.181 287.801 188.693 273.562C186.208 272.829 183.953 272.371 181.192 271.869C171.682 227.138 163.967 182.314 158 137.901L148.208 137.023C150.437 129.685 152.505 122.171 154.224 114.873L146.181 113.507C149.227 101.102 152.681 88.9487 156.366 76.6013L158.508 69.4874C161.197 97.0183 163.013 124.686 164.636 152.121L233.702 158.314C238.079 140.657 243.095 123.057 248.111 105.457C253.436 86.8097 259.401 68.2202 265.792 49.6689C268.136 49.8792 270.714 49.8954 273.077 49.8925C276.919 38.2037 280.392 25.8371 282.916 14.46L227.919 9.52841ZM413.328 53.4437C410.42 52.3235 406.853 51.359 402.59 50.9767C394.703 50.2695 391.063 52.5216 390.642 57.2113L390.527 58.4903C397.173 58.6699 403.801 59.0495 410.234 59.418L410.855 59.4535C408.699 71.5084 405.322 82.8091 401.249 94.692L395.067 94.1377L386.447 127.96C372.988 181.243 349.253 191.529 331.21 192.322C347.148 200.917 356.618 221.464 353.39 257.463C348.556 311.366 325.83 331.522 297.487 328.98C281.544 327.551 265.451 316.414 263.842 280.3C262.892 293.736 262.173 307.446 262.187 318.672C264.25 318.857 266.41 319.286 268.528 319.707C269.526 319.906 270.516 320.103 271.482 320.271C271.288 330.968 270.358 341.344 268.646 351.904L187.158 344.597C187.945 330.127 189.194 316.209 190.993 301.829C193.569 301.55 195.869 301.501 198.423 301.475C200.226 289.902 201.799 278.053 202.865 266.159C204.068 252.746 204.511 239.266 204.471 225.487C202.989 225.354 201.633 225.016 200.245 224.67L200.245 224.67L200.245 224.67L200.245 224.67L200.244 224.67C199.5 224.485 198.747 224.297 197.96 224.138C198.494 209.645 199.742 195.726 201.795 181.369C214.124 180.434 226.063 180.994 237.957 182.061C249.345 183.082 260.941 184.632 272.147 187.678L268.63 226.903C277.052 197.885 292.761 188.379 308.624 187.574C311.703 175.873 314.839 164.008 318.717 152.4C323.658 152.413 327.451 148.456 332.522 127.852L341.988 89.3781L333.888 88.6518C336.587 77.7201 339.675 67.2529 343.615 56.8622C345.785 56.627 348.168 56.4109 350.318 56.3889C358.534 24.6787 375.357 12.0051 405.839 14.7385C414.366 15.5031 420.045 16.8718 424 18.3008C420.759 30.4733 417.363 41.9872 413.328 53.4437ZM481.674 101.904C485.748 90.0208 489.144 78.507 491.299 66.4521C486.38 66.011 481.64 65.7846 476.718 65.5496L476.126 65.5213C476.683 64.0597 477.233 62.6115 477.778 61.1742C480.254 54.6431 482.644 48.3409 485.32 42.0643C478.42 39.9413 468.032 38.3652 458.226 37.486C446.502 36.4347 438.345 36.3478 428.618 36.9798C426.247 46.6516 424.222 54.8504 422.004 62.817C419.427 62.8007 417.044 63.0168 414.661 63.2329C410.721 73.6236 407.633 84.0907 404.934 95.0225L412.182 95.6724L399.734 136.243C393.037 158.205 399.665 175.345 426.311 177.734C455.941 180.391 463.557 164.958 477.472 120.007L467.027 119.07C457.068 151.054 453.778 154.197 451.433 153.986C448.448 153.719 448.484 150.929 458.134 119.992C460.276 112.878 462.361 106.403 464.407 100.355L481.674 101.904ZM564.92 98.1946C567.157 90.0149 568.969 81.797 570.78 73.5791C589.711 73.3427 606.125 74.8145 624.285 78.3769C619.498 93.419 615.522 106.6 611.973 119.819L602.676 154.011C593.812 186.398 579.268 204.028 553.953 209.159C574.826 211.68 588.958 221.932 591.296 253.286L594.586 216.591C611.172 216.547 627.621 218.022 643.934 221.016C643.173 238.039 641.517 256.513 639.146 274.413C621.549 274.366 605.605 272.936 589.798 269.988L590.093 266.698C590.751 259.359 586.722 255.937 581.683 255.23C575.885 254.455 571.908 256.139 571.454 261.2C570.977 266.515 573.742 269.824 600.801 275.311C631.61 281.645 641.886 295.067 639.776 318.602C637.257 346.692 621.697 358.052 591.582 355.352C568.806 353.31 551.841 343.37 548.165 310.387L544.739 348.6C528.153 348.644 511.704 347.169 495.391 344.175C496.152 327.152 497.809 308.678 500.179 290.778C517.777 290.826 533.72 292.255 549.527 295.203L549.391 296.722C548.551 306.085 554.745 310.977 562.59 311.681C569.17 312.271 572.434 310.012 572.797 305.963C573.296 300.396 570.025 297.041 545.75 291.803C511.719 284.415 501.832 269.498 503.942 245.963C505.742 225.897 514.988 214.746 529.266 210.536C527.801 210.449 526.31 210.338 524.793 210.202C482.373 206.398 468.207 189.442 476.625 165.056C490.771 165.464 504.84 166.726 519.685 168.917C517.95 176.282 521.093 179.572 526.422 180.05C535.802 180.891 543.639 172.569 556.663 127.967C541.588 159.492 523.052 164.921 509.196 163.679C482.976 161.327 481.734 144.026 488.275 121.405C490.417 114.291 491.767 108.825 492.865 103.767L492.337 103.666C490.369 103.291 488.254 102.888 486.333 102.322C489.341 90.3431 492.951 78.8484 497.238 66.9846C508.456 66.4864 517.68 66.6688 531.109 67.873C540.915 68.7523 551.729 70.3666 558.63 72.4896C554.4 83.7139 550.635 94.55 547.334 104.998C541.949 121.92 542.419 126.26 547.749 126.738C552.438 127.159 557.972 120.564 564.92 98.1946ZM99.9962 221.476C98.0225 206.503 95.7957 191.507 93.5689 176.512L79.4977 219.638L99.9962 221.476ZM265.43 262.586C264.341 274.733 268.374 280.962 275.46 281.597C283.305 282.301 288.103 274.313 289.669 256.851C291.235 239.389 287.935 230.675 280.09 229.971C273.257 229.359 268.225 234.265 266.996 245.124L265.43 262.586ZM441.466 284.238C441.616 293.945 437.181 297.884 431.108 297.34C423.516 296.659 420.105 292.016 421.003 273.474L439.477 275.131C451.102 276.173 460.468 276.974 468.168 277.632C480.08 278.65 488.005 279.328 494.139 280.033C495.515 276.074 496.52 270.552 497.11 263.972C500.468 226.519 481.691 202.641 439.176 198.829C393.118 194.699 361.999 217.418 357.755 264.742C353.648 310.547 374.842 335.917 422.925 340.228C462.657 343.791 491.229 326.71 493.907 296.848C494.156 294.065 494.13 291.511 493.897 288.429C476.733 286.38 459.019 284.792 441.466 284.238ZM436.327 239.134C444.172 239.838 445.977 248.163 445.092 258.032L444.729 262.082L422.206 260.062C424.485 243.175 429.494 238.522 436.327 239.134Z" fill="white"/>
</svg>
